<?xml version="1.0" standalone="no"?>
<!DOCTYPE svg PUBLIC "-//W3C//DTD SVG 20010904//EN"
 "http://www.w3.org/TR/2001/REC-SVG-20010904/DTD/svg10.dtd">
<svg version="1.0" xmlns="http://www.w3.org/2000/svg"
 width="500.000000pt" height="500.000000pt" viewBox="0 0 500.000000 500.000000"
 preserveAspectRatio="xMidYMid meet">
<metadata>
Created by potrace 1.11, written by Peter Selinger 2001-2013
</metadata>
<g transform="translate(0.000000,500.000000) scale(0.100000,-0.100000)"
fill="#000000" stroke="none">
<path d="M3165 4846 c-62 -19 -97 -41 -145 -88 -66 -66 -95 -135 -97 -238 -1
-73 -4 -85 -20 -88 -41 -8 -125 -57 -163 -94 -22 -22 -40 -36 -40 -30 0 29
-114 106 -190 128 -41 12 -142 6 -188 -10 -52 -19 -118 -63 -156 -106 -35 -39
-73 -124 -77 -171 -4 -48 -7 -51 -37 -34 -15 8 -48 24 -74 35 -29 11 -48 26
-48 35 0 20 -36 91 -67 132 -86 112 -254 156 -391 100 -33 -13 -73 -35 -90
-48 -45 -37 -98 -113 -111 -161 l-12 -43 -77 0 c-137 -1 -246 -48 -347 -149
-131 -132 -174 -331 -109 -500 8 -21 13 -40 12 -42 -2 -1 -41 -4 -88 -5 -197
-4 -348 -119 -403 -305 -13 -46 -15 -161 -3 -212 12 -54 60 -135 109 -185 84
-87 179 -126 295 -124 40 1 69 -2 69 -8 1 -53 15 -360 18 -395 2 -25 6 -115
10 -200 4 -85 8 -182 10 -215 2 -33 6 -134 9 -225 4 -91 8 -194 11 -230 3 -36
7 -126 10 -200 5 -127 8 -173 20 -429 3 -58 12 -132 21 -165 47 -180 184 -329
374 -405 l65 -26 1205 -2 c1329 -3 1266 -6 1399 60 46 22 91 57 147 112 88 88
131 160 158 266 15 62 18 99 31 379 3 69 8 163 10 210 2 47 7 148 10 225 3 77
8 174 10 215 2 41 7 136 10 210 3 74 7 171 10 215 2 44 7 145 11 225 4 80 8
165 10 190 1 25 3 79 3 120 l1 75 50 -3 c149 -11 311 81 382 215 66 125 69
255 7 381 -67 138 -213 232 -360 232 l-58 0 1 73 c1 40 -4 81 -9 92 -6 11 -12
25 -13 30 -5 22 -41 85 -49 85 -24 0 -19 34 9 62 81 80 83 213 6 290 -51 50
-123 73 -187 59 -35 -8 -38 -7 -49 19 -16 38 -68 90 -108 107 -26 11 -31 17
-24 31 26 54 2 150 -52 204 -45 44 -91 61 -160 56 l-61 -4 -18 55 c-17 50 -61
119 -97 148 -8 7 -44 27 -79 45 -53 27 -78 33 -135 34 -39 1 -89 -4 -111 -10z"/>
</g>
</svg>
