<?xml version="1.0" standalone="no"?>
<!DOCTYPE svg PUBLIC "-//W3C//DTD SVG 20010904//EN"
 "http://www.w3.org/TR/2001/REC-SVG-20010904/DTD/svg10.dtd">
<svg version="1.0" xmlns="http://www.w3.org/2000/svg"
 width="500.000000pt" height="500.000000pt" viewBox="0 0 500.000000 500.000000"
 preserveAspectRatio="xMidYMid meet">
<metadata>
Created by potrace 1.11, written by Peter Selinger 2001-2013
</metadata>
<g transform="translate(0.000000,500.000000) scale(0.100000,-0.100000)"
fill="#000000" stroke="none">
<path d="M3404 4839 c-45 -9 -110 -26 -145 -37 -341 -107 -625 -408 -720 -762
-38 -144 -47 -373 -19 -500 18 -85 65 -219 99 -282 16 -32 27 -59 23 -59 -4
-1 -134 -2 -288 -3 l-282 -1 4 25 c14 99 3 229 -32 385 -9 40 -43 122 -77 185
-97 181 -244 322 -430 414 -139 69 -266 98 -420 98 -108 0 -154 -6 -262 -33
-75 -18 -251 -97 -278 -123 -7 -7 -32 -26 -57 -43 -56 -39 -165 -152 -208
-217 -72 -107 -124 -231 -158 -378 -3 -13 -7 -81 -9 -153 -5 -210 34 -354 148
-545 73 -122 227 -262 382 -344 20 -11 20 -20 20 -761 0 -412 3 -776 7 -808
28 -207 172 -382 373 -450 84 -29 75 -27 128 -27 l43 0 12 -57 c21 -102 100
-188 194 -213 23 -7 336 -9 860 -8 925 3 855 -3 937 79 45 45 71 95 79 151 5
44 6 44 77 52 203 22 388 173 454 371 27 82 30 116 30 373 l1 222 86 0 86 0
337 -209 336 -209 63 -1 62 -1 0 765 0 765 -64 0 c-64 0 -65 -1 -217 -96 -85
-53 -173 -108 -197 -123 -24 -14 -78 -48 -121 -76 -42 -27 -80 -51 -84 -53 -4
-1 -31 -17 -59 -35 -49 -30 -60 -33 -140 -35 l-88 -1 0 289 c0 160 -1 293 -2
297 -2 4 20 15 47 23 81 27 86 28 190 81 56 27 114 61 129 74 16 14 32 25 36
25 14 0 184 178 227 239 72 100 148 264 168 360 2 9 8 37 14 62 32 140 28 337
-8 479 -63 241 -176 422 -372 595 -85 75 -285 185 -364 201 -5 1 -37 9 -70 17
-104 27 -117 29 -260 31 -102 2 -162 -2 -221 -15z m316 -311 c0 -11 -75 -247
-90 -283 -5 -11 -16 -45 -25 -75 -24 -78 -38 -110 -50 -111 -26 -2 -46 -9 -91
-31 l-48 -24 -219 108 c-163 81 -216 112 -210 122 61 103 267 241 419 280 120
31 314 39 314 14z m338 -124 c186 -125 317 -345 338 -569 3 -27 7 -56 10 -63
3 -11 -5 -12 -38 -7 -24 4 -54 8 -68 10 -81 13 -384 66 -385 68 -1 1 -8 18
-15 36 -8 19 -26 49 -41 65 l-26 31 76 232 c42 128 81 233 86 233 6 0 34 -16
63 -36z m-2798 -442 l56 -15 -86 -145 -86 -144 -56 -3 c-33 -2 -77 -13 -107
-28 l-51 -24 -145 87 -146 87 41 37 c83 75 188 128 305 155 60 14 210 10 275
-7z m1815 -99 c211 -106 215 -108 221 -143 10 -60 34 -114 70 -160 19 -24 32
-50 30 -57 -3 -8 -24 -80 -47 -161 l-42 -148 -130 1 -130 0 -48 55 c-61 69
-131 207 -160 315 -19 67 -19 316 -1 368 8 20 15 37 18 37 2 0 101 -48 219
-107z m-1389 -236 c52 -102 72 -193 69 -308 -1 -52 -6 -102 -11 -110 -7 -12
-40 -14 -176 -14 -93 0 -168 0 -168 1 0 0 7 15 15 31 31 61 15 219 -26 269 -8
10 12 50 77 160 l88 147 49 -53 c26 -29 64 -84 83 -123z m2249 -72 c17 -2 75
-12 130 -21 55 -9 109 -18 120 -19 20 -3 77 -14 105 -20 8 -2 27 -4 42 -4 l28
-1 -25 -56 c-56 -126 -125 -215 -240 -309 -62 -50 -201 -121 -270 -136 l-53
-12 -43 44 c-47 47 -76 71 -106 88 -48 27 -50 3 22 251 2 8 8 29 13 45 6 20
18 33 38 40 41 15 125 71 148 99 13 15 28 23 40 20 12 -2 35 -6 51 -9z m-3401
-33 c2 -4 61 -41 130 -82 l126 -75 0 -50 c1 -62 34 -140 83 -196 l36 -43 -54
-52 c-52 -51 -83 -98 -115 -177 l-16 -38 -72 75 c-85 89 -123 153 -158 261
-37 116 -39 269 -4 361 9 23 34 32 44 16z"/>
</g>
</svg>
